:SAMPLES-PER-SECOND 30
:FULLY-SPECIFIED
:DEGREES
80
root  6.478 39.3007 8.74873 123.347 -84.9259 -133.849
RightUpLeg  0.145363 -18.1981 1.51966
RightLeg  25.5239 -0.184334 0.371056
RightFoot  -12.8008 -0.152388 -5.16687
RightToes  -2.9104e-010 0 -3.6325e-017
Spine  8.69114 0.251451 14.1371
Spine1  12.3268 2.45557 -1.90234
HEad  1.99869 -4.28047 0.345276
LeftShoulder1  8.29482 -12.5198 -45.1129
LeftArm  -5.74031 16.8401 -29.2696
LeftForeArm  32.5602 -22.5463 -3.30571
LeftHand  -0.244104 0.0205437 5.32207
RightShoulder  4.6958 8.29057 33.8673
RightArm  -3.92534 10.4154 40.0528
RightForeArm  -14.4999 24.8425 5.98972
RightHand  -2.7551 8.88015 -22.4676
LeftUpLeg  -19.662 11.4371 5.60044
LeftLeg  43.5415 3.48412 3.98877
LeftFoot  -0.461449 0.478909 -4.962
LeftToes  -1.62803e-010 -2.57217e-011 -2.5681e-011
81
root  5.14477 39.3792 8.68237 135.022 -84.2842 -145.495
RightUpLeg  2.86542 -16.5776 0.799195
RightLeg  24.5378 -0.53963 0.274859
RightFoot  -14.2395 -0.218641 -4.85118
RightToes  -2.9104e-010 0 -3.6325e-017
Spine  7.99984 1.1174 14.7424
Spine1  12.797 3.69928 -3.72213
HEad  2.22409 -4.72872 0.598249
LeftShoulder1  8.13816 -12.3659 -44.6715
LeftArm  -7.94179 18.1101 -28.4317
LeftForeArm  31.0228 -19.4354 -3.53196
LeftHand  -0.244104 0.0205437 5.32207
RightShoulder  4.69376 8.47916 33.2286
RightArm  -3.65049 16.3865 41.043
RightForeArm  -15.7608 27.2372 6.65239
RightHand  -2.62666 8.67498 -21.7602
LeftUpLeg  -18.5321 12.3705 5.3267
LeftLeg  29.3071 1.49 1.33786
LeftFoot  1.10309 0.698371 -6.47182
LeftToes  -1.62803e-010 -2.57217e-011 -2.5681e-011
82
root  3.82959 39.3707 8.62272 142.418 -83.5073 -152.915
RightUpLeg  5.3825 -15.4329 0.253209
RightLeg  23.9402 -0.65318 -0.0233925
RightFoot  -15.8375 -0.273757 -4.25073
RightToes  -2.9104e-010 0 -3.6325e-017
Spine  7.46446 1.89177 15.3343
Spine1  13.4234 4.93372 -5.56826
HEad  2.36134 -5.24408 1.02457
LeftShoulder1  7.9803 -12.262 -44.0662
LeftArm  -10.233 19.2296 -27.6432
LeftForeArm  30.1523 -16.7645 -3.81448
LeftHand  -0.244104 0.0205437 5.32207
RightShoulder  4.63784 8.68686 32.1025
RightArm  -3.16686 22.4337 42.3602
RightForeArm  -17.9174 28.8809 7.15788
RightHand  -2.51634 8.51343 -21.1124
LeftUpLeg  -16.5145 11.2938 5.51298
LeftLeg  15.5832 -0.757776 -0.260109
LeftFoot  1.56501 0.826908 -7.39938
LeftToes  -1.62803e-010 -2.57217e-011 -2.5681e-011
83
root  2.50267 39.2216 8.60514 143.685 -82.783 -154.293
RightUpLeg  7.45869 -15.3526 -0.214151
RightLeg  24.5396 -0.116274 -0.156441
RightFoot  -17.5061 -0.314507 -3.63118
RightToes  -2.9104e-010 0 -3.6325e-017
Spine  7.14353 2.43157 16.3974
Spine1  14.0251 6.08701 -7.45633
HEad  2.38192 -6.08833 1.75383
LeftShoulder1  7.87579 -12.2886 -43.3807
LeftArm  -11.7056 20.1712 -26.7753
LeftForeArm  29.6152 -14.7061 -3.92111
LeftHand  -0.244104 0.0205437 5.32207
RightShoulder  4.54571 8.86372 30.8038
RightArm  -2.98055 28.424 43.6307
RightForeArm  -20.092 29.6173 7.44418
RightHand  -2.39465 8.31328 -20.4107
LeftUpLeg  -14.6058 6.95383 6.89421
LeftLeg  5.8671 0.39096 -1.02363
LeftFoot  1.50298 0.902105 -8.06794
LeftToes  -1.62803e-010 -2.57217e-011 -2.5681e-011
84
root  1.1726 38.9786 8.62459 140.909 -82.5353 -151.635
RightUpLeg  9.14434 -15.7265 -0.81395
RightLeg  26.2071 0.214528 -0.141287
RightFoot  -19.0833 -0.324869 -2.9023
RightToes  -2.9104e-010 0 -3.6325e-017
Spine  7.06158 2.75861 17.0589
Spine1  14.3952 6.85001 -8.64821
HEad  2.35209 -7.24507 2.55627
LeftShoulder1  7.81842 -12.3399 -42.8978
LeftArm  -12.4249 20.8477 -25.8422
LeftForeArm  29.4469 -13.2801 -3.91918
LeftHand  -0.244104 0.0205437 5.32207
RightShoulder  4.41981 9.00393 29.3618
RightArm  -2.99324 34.318 44.6079
RightForeArm  -21.972 29.4108 7.47415
RightHand  -2.28245 8.13629 -19.7334
LeftUpLeg  -14.2876 4.93981 7.34659
LeftLeg  3.03916 0.225408 -1.42827
LeftFoot  4.31182 1.00638 -7.54996
LeftToes  -1.62803e-010 -2.57217e-011 -2.5681e-011
